<?xml version="1.0" encoding="UTF-8" standalone="no"?>
<svg
   width="532"
   height="532"
   viewBox="0 0 532 532"
   version="1.1"
   id="svg36"
   sodipodi:docname="femaleAvatar.svg"
   inkscape:version="1.2.2 (732a01da63, 2022-12-09)"
   inkscape:export-filename="femaleAvatarWave.svg"
   inkscape:export-xdpi="96"
   inkscape:export-ydpi="96"
   xml:space="preserve"
   xmlns:inkscape="http://www.inkscape.org/namespaces/inkscape"
   xmlns:sodipodi="http://sodipodi.sourceforge.net/DTD/sodipodi-0.dtd"
   xmlns="http://www.w3.org/2000/svg"
   xmlns:svg="http://www.w3.org/2000/svg"><defs
     id="defs40" /><sodipodi:namedview
     id="namedview38"
     pagecolor="#ffffff"
     bordercolor="#000000"
     borderopacity="0.25"
     inkscape:showpageshadow="2"
     inkscape:pageopacity="0.0"
     inkscape:pagecheckerboard="0"
     inkscape:deskcolor="#d1d1d1"
     showgrid="false"
     inkscape:zoom="1.1289699"
     inkscape:cx="50.931384"
     inkscape:cy="405.67955"
     inkscape:window-width="1920"
     inkscape:window-height="1017"
     inkscape:window-x="-8"
     inkscape:window-y="-8"
     inkscape:window-maximized="1"
     inkscape:current-layer="svg36" /><polygon
     points="246.19,199.04999 361.19,262.04999 379.19,379.04999 246.19,379.04999 "
     fill="#2f2e41"
     id="polygon22"
     style="display:inline" /><circle
     cx="270.76004"
     cy="260.93216"
     r="86.348969"
     fill="#ffb6b6"
     id="circle24"
     style="display:inline" /><polygon
     points="295.19,306.04999 341.19,418.04999 261.19,510.04999 204.19,398.04999 221.19,360.04999 217.28893,320.61639 "
     fill="#ffb6b6"
     id="polygon26"
     style="display:inline" /><path
     id="path28"
     style="display:inline;fill:#1e97bc;fill-opacity:1"
     d="m 321.21094,354.08984 -3.11133,7.74024 -12.12891,30.2207 -39.15039,97.47852 -45.38086,-84.66992 -11.05859,-20.63868 -15.01172,-28 -21.31836,38.39844 c 0,0 -6.11134,1.53071 -15.11133,5.7207 -18.15995,8.45001 -48.07857,27.76054 -63.228512,67.23047 -0.27002,0.70001 -0.541016,1.40894 -0.791016,2.12891 1.410028,1.19 2.820011,2.35981 4.25,3.50976 0.03003,0.03 0.05011,0.0503 0.08008,0.0703 C 146.35994,511.32925 204.59009,532 266,532 c 66.60991,0 129.48052,-24.31981 178.48047,-68.75977 3.27002,-2.96001 6.46937,-6.01038 9.60937,-9.15039 0.98999,-0.98999 1.97925,-1.98999 2.94922,-3 -0.13995,-0.87 -0.28925,-1.73962 -0.44922,-2.59961 -4.27001,-24.17997 -11.91071,-43.64112 -24.4707,-53.87109 l -31.05859,-6.85937 -22.8711,-5.05079 L 350,376.49023 336,365.59961 Z" /><path
     d="m 225.33945,162.80316 c 10.51816,-17.66798 29.83585,-29.79031 50.31992,-31.577 20.48407,-1.78667 41.60876,6.80817 55.02692,22.38837 7.99588,9.28423 13.23862,20.65456 21.03256,30.10893 16.77231,20.3455 45.37225,32.2415 52.69913,57.57068 3.19727,11.05298 1.6041,22.85326 -0.0137,34.24507 -1.3866,9.76407 -2.77322,19.52817 -4.15985,29.29224 -1.0791,7.59863 -2.11386,15.60931 0.73538,22.73569 3.34277,8.36084 11.34241,13.83688 16.51462,21.20749 8.80081,12.54153 8.15744,30.90353 -1.49963,42.79834 -4.18805,5.15848 -9.74042,9.04874 -14.13116,14.03583 -4.39074,4.98709 -7.64764,11.80563 -5.80865,18.19058 3.52286,12.23126 22.70462,15.16449 24.80847,27.7179 1.07565,6.41818 -3.35748,12.82758 -9.1658,15.76245 -5.80832,2.93487 -12.64572,3.02011 -19.10587,2.23492 -24.55347,-2.98438 -47.28705,-18.32629 -59.24158,-39.97961 -11.95456,-21.65335 -12.82504,-49.06561 -2.26843,-71.43384 8.67035,-18.37146 24.78519,-34.60559 24.60965,-54.91949 -0.0956,-11.0668 -5.17172,-21.4032 -10.13535,-31.29489 -10.15924,-20.24577 -20.31851,-40.49153 -30.47775,-60.7373 -5.44196,-10.84496 -11.75745,-22.53171 -22.96112,-27.19061 -8.65872,-3.60063 -18.48325,-2.20412 -27.74442,-0.73141 -9.26117,1.47271 -19.07155,2.90622 -27.75604,-0.63181 -8.68449,-3.53803 -15.24644,-14.04982 -11.1087,-22.4651"
     fill="#2f2e41"
     id="path30"
     style="display:inline" /><path
     d="m 240.47141,163.72575 c -16.68272,-5.49146 -35.39705,3.32417 -46.6913,16.77441 -11.29425,13.45026 -16.77287,30.70596 -21.992,47.47588 -2.98952,9.60582 -5.97903,19.21164 -8.96854,28.81747 -2.81226,9.03625 -5.6245,18.07248 -8.43675,27.10873 -3.30785,10.62869 -6.64275,21.9205 -3.92802,32.71591 1.96262,7.8046 7.01262,14.89124 7.12131,22.93808 0.11353,8.40567 -5.15047,15.7851 -9.7636,22.81268 -4.61311,7.02759 -8.94347,15.37701 -6.74557,23.49103 3.34306,12.34174 20.502,19.12564 19.56139,31.87747 -0.3139,4.25571 -2.7749,8.19205 -2.73022,12.45908 0.0568,5.42914 4.30745,10.1203 9.2874,12.28336 4.97997,2.16306 10.5818,2.28052 16.01041,2.18506 16.65134,-0.29279 33.27257,-2.27026 49.52779,-5.89246 6.25403,-1.39359 12.61382,-3.10281 17.81967,-6.83832 5.20585,-3.73551 9.0894,-9.92447 8.41191,-16.29596 -1.05576,-9.92862 -11.73091,-15.56143 -17.11801,-23.96805 -5.29137,-8.25723 -5.16869,-18.71957 -7.45038,-28.25763 C 231.25108,350.30403 223.50661,338.86 217.69288,326.7 195.83593,280.98394 203.48716,222.71282 236.40513,184.18891 c 2.91051,-3.40616 6.0903,-6.83273 7.30457,-11.14532 1.21426,-4.31261 -0.35107,-9.80727 -4.5697,-11.31593"
     fill="#2f2e41"
     id="path32"
     style="display:inline" /><path
     id="path34"
     d="M 266,0 C 194.95008,0 128.15016,27.670216 77.910156,77.910156 27.670216,128.1501 0,194.95002 0,266 c 0,64.84992 23.049115,126.16038 65.289062,174.57031 4.030026,4.63 8.241149,9.13953 12.621094,13.51953 1.030029,1.03003 2.069092,2.06055 3.119141,3.06055 2.799987,2.71002 5.650754,5.35969 8.550781,7.92969 1.760008,1.57001 3.539856,3.10919 5.339844,4.61914 1.410028,1.19 2.820011,2.36176 4.25,3.51172 0.03003,0.03 0.05011,0.0483 0.08008,0.0684 C 146.35994,511.32925 204.59008,532 266,532 c 66.60992,0 129.48052,-24.31981 178.48047,-68.75977 3.27002,-2.96001 6.46936,-6.01038 9.60937,-9.15039 0.98999,-0.98999 1.97925,-1.98999 2.94922,-3 2.70001,-2.77996 5.32087,-5.61048 7.88086,-8.48046 C 508.28988,393.88939 532,331.76989 532,266 532,194.95002 504.32978,128.1501 454.08984,77.910156 403.84984,27.670216 337.04992,0 266,0 Z m 0,2 c 145.56986,0 264,118.43014 264,264 0,66.6599 -24.83055,127.61919 -65.73047,174.11914 -2.5,2.83997 -5.0597,5.64105 -7.67969,8.37109 -4.08001,4.25 -8.29066,8.36988 -12.64062,12.33985 -1.65002,1.52002 -3.31977,3.00067 -5.00977,4.4707 -17.06999,14.84997 -36.06862,27.52889 -56.55859,37.62891 -7.18999,3.54998 -14.56159,6.77991 -22.10156,9.66992 C 330.98929,523.83959 299.19998,530 266,530 c -32.03995,0 -62.75949,-5.74024 -91.18945,-16.24023 -11.66997,-4.29999 -22.9513,-9.4098 -33.78125,-15.25977 -1.59003,-0.86005 -3.17023,-1.72912 -4.74024,-2.61914 -8.25994,-4.67999 -16.24995,-9.79053 -23.91992,-15.31055 -5.72997,-4.10998 -11.28822,-8.44 -16.658202,-13 -1.879999,-1.58997 -3.740295,-3.19958 -5.570313,-4.84961 -2.980037,-2.65001 -5.900023,-5.38165 -8.75,-8.18164 C 75.99061,449.24909 70.830376,443.7398 65.900391,438.00977 26.09043,391.76984 2,331.64989 2,266 2,120.43014 120.43014,2 266,2 Z"
     style="display:inline" /></svg>
