<?xml version="1.0" encoding="UTF-8" standalone="no"?>
<svg
   width="532"
   height="532"
   viewBox="0 0 532 532"
   version="1.1"
   id="svg36"
   sodipodi:docname="femaleAvatar.svg"
   inkscape:version="1.2.2 (732a01da63, 2022-12-09)"
   inkscape:export-filename="femaleAvatar.png"
   inkscape:export-xdpi="96"
   inkscape:export-ydpi="96"
   xml:space="preserve"
   xmlns:inkscape="http://www.inkscape.org/namespaces/inkscape"
   xmlns:sodipodi="http://sodipodi.sourceforge.net/DTD/sodipodi-0.dtd"
   xmlns="http://www.w3.org/2000/svg"
   xmlns:svg="http://www.w3.org/2000/svg"><defs
     id="defs40" /><sodipodi:namedview
     id="namedview38"
     pagecolor="#ffffff"
     bordercolor="#000000"
     borderopacity="0.25"
     inkscape:showpageshadow="2"
     inkscape:pageopacity="0.0"
     inkscape:pagecheckerboard="0"
     inkscape:deskcolor="#d1d1d1"
     showgrid="false"
     inkscape:zoom="0.78665414"
     inkscape:cx="88.984468"
     inkscape:cy="287.92832"
     inkscape:window-width="1350"
     inkscape:window-height="1040"
     inkscape:window-x="1987"
     inkscape:window-y="7"
     inkscape:window-maximized="0"
     inkscape:current-layer="svg36" /><polygon
     points="246.19,199.04999 361.19,262.04999 379.19,379.04999 246.19,379.04999 "
     fill="#2f2e41"
     id="polygon22"
     style="display:inline" /><g
     inkscape:groupmode="layer"
     id="layer2"
     inkscape:label="Layer hand skin"
     style="display:inline"
     transform="matrix(1.1817445,0,0,1.1179207,-7.2441932,-33.395685)"><path
       d="m 89.611377,166.59999 q 1.042424,0.96075 1.491645,1.90598 0.513408,1.08026 0.696846,4.08546 0.141382,3.0708 -0.631714,9.91816 -0.773082,6.84736 -1.957688,11.75036 c 0,0 -1.071597,4.814 -1.07837,4.97245 -0.0068,0.1584 0.121021,0.3118 0.434226,0.47001 0.313168,0.15825 0.435613,-0.18055 0.435613,-0.18055 l 1.609558,-4.62516 q 1.609552,-4.62517 2.661455,-10.7318 1.158166,-6.03718 1.826786,-8.01995 0.668605,-1.98276 1.514169,-2.36068 0.845542,-0.37793 2.456852,-0.069 1.569265,0.37446 2.994565,1.67861 1.42531,1.30416 2.06707,2.65449 0.70594,1.48534 0.88722,4.02376 0.18126,2.53843 -0.3282,6.85902 -0.50948,4.32059 -1.86015,9.95266 -1.28651,5.76712 -2.35579,8.13945 -0.963045,2.44178 -0.797373,6.17997 0.165671,3.73817 0.984363,6.69334 0.88285,3.09021 1.90967,5.25071 1.13305,2.22997 1.91877,2.65059 0.78572,0.42062 2.0562,0.32055 1.33467,0.0349 6.76874,-2.08978 5.43406,-2.1247 7.93299,-2.25931 2.49892,-0.1346 4.85172,0.1937 2.35281,0.32831 4.45324,1.05006 2.20669,0.7912 4.01271,1.97197 1.80602,1.18077 2.40354,2.12988 0.55547,1.01468 0.15481,1.40425 -0.29442,0.45901 -2.83324,1.12598 -2.53882,0.66697 -7.86446,3.32791 -5.36772,2.72653 -6.31734,3.50177 -0.88541,0.9103 -1.09356,1.70495 -0.20814,0.79465 -1.61823,2.75801 -1.45218,2.02894 -2.33978,2.47243 -0.78138,0.51294 -8.71654,2.30548 -7.870974,1.92754 -11.598343,2.09666 -3.727355,0.16911 -4.714686,1.94352 -1.029394,1.83995 -3.092931,9.0536 l -2.105579,7.27921 -16.679114,-10.90477 -16.572882,-10.83533 1.368054,-1.89777 q 1.325983,-1.83221 2.076556,-4.41292 0.856806,-2.51123 0.12007,-6.06434 -0.6305,-3.48365 -2.285638,-8.66102 -1.697208,-5.11178 -2.349826,-8.79605 -0.588446,-3.54921 -0.528211,-8.81501 0.124408,-5.13079 0.868466,-9.11185 0.702009,-3.91549 -0.297547,-13.87635 -1.041618,-9.89529 -0.882049,-12.02473 0.159549,-2.12945 0.664277,-2.91636 0.462665,-0.7213 1.987686,-0.74806 1.482965,0.0388 2.268678,0.45945 0.785721,0.42063 1.403191,1.10355 0.723949,0.75215 3.108679,12.54976 c 0,0 2.231305,11.30135 2.384967,11.79738 0.153661,0.49601 2.336079,3.0863 3.15629,0.016 q 0.820218,-3.07035 0,0 0.715026,-1.11476 0.519356,-15.85523 c 0,0 -0.569104,-12.09935 -0.257997,-13.52473 0.311121,-1.42539 0.779539,-1.86372 0.779539,-1.86372 q 0.717176,-0.648 1.755278,-0.62081 0.996018,0.0928 2.439093,0.66396 1.507247,0.70619 2.16678,1.32356 0.723949,0.75215 1.108762,1.56256 0.343,0.87577 0.309625,2.80851 0.0308,2.06775 1.045954,10.82885 1.015158,8.76109 0.795767,11.68909 c 0,0 -0.229732,2.5024 -0.113157,2.99744 0.116596,0.49505 1.034148,2.11876 1.717552,0.37835 q 0.683419,-1.74041 0,0 0.462665,-0.72132 1.620818,-6.7585 1.264386,-5.96771 2.411673,-14.33883 c 0,0 0.668692,-5.56605 1.021868,-7.057 0.353162,-1.49096 1.112422,-2.20453 1.112422,-2.20453 1.606981,-0.62467 1.943931,-0.6836 3.860392,0.15054 1.916454,0.83416 2.675858,1.47026 2.675858,1.47026 z"
       stroke="#000000"
       stroke-width="0.0994378"
       fill="#000000"
       id="path1054"
       style="fill:#ffb6b6;fill-opacity:1" /></g><circle
     cx="270.76004"
     cy="260.93216"
     r="86.348969"
     fill="#ffb6b6"
     id="circle24"
     style="display:inline" /><polygon
     points="221.19,360.04999 217.28893,320.61639 295.19,306.04999 341.19,418.04999 261.19,510.04999 204.19,398.04999 "
     fill="#ffb6b6"
     id="polygon26"
     style="display:inline" /><path
     id="path28"
     style="display:inline;fill:#1e97bc;fill-opacity:1"
     d="m 321.21094,354.08984 -3.11133,7.74024 -12.12891,30.2207 -39.15039,97.47852 -45.38086,-84.66992 -11.05859,-20.63868 -15.01172,-28 -21.31836,38.39844 c 0,0 -6.11134,1.53071 -15.11133,5.7207 -18.15995,8.45001 -48.07857,27.76054 -63.228512,67.23047 -0.27002,0.70001 -0.541016,1.40894 -0.791016,2.12891 1.410028,1.19 2.820011,2.35981 4.25,3.50976 0.03003,0.03 0.05011,0.0503 0.08008,0.0703 C 146.35994,511.32925 204.59009,532 266,532 c 66.60991,0 129.48052,-24.31981 178.48047,-68.75977 3.27002,-2.96001 6.46937,-6.01038 9.60937,-9.15039 0.98999,-0.98999 1.97925,-1.98999 2.94922,-3 -0.13995,-0.87 -0.28925,-1.73962 -0.44922,-2.59961 -4.27001,-24.17997 -11.91071,-43.64112 -24.4707,-53.87109 l -31.05859,-6.85937 -22.8711,-5.05079 L 350,376.49023 336,365.59961 Z" /><path
     d="m 225.33945,162.80316 c 10.51816,-17.66798 29.83585,-29.79031 50.31992,-31.577 20.48407,-1.78667 41.60876,6.80817 55.02692,22.38837 7.99588,9.28423 13.23862,20.65456 21.03256,30.10893 16.77231,20.3455 45.37225,32.2415 52.69913,57.57068 3.19727,11.05298 1.6041,22.85326 -0.0137,34.24507 -1.3866,9.76407 -2.77322,19.52817 -4.15985,29.29224 -1.0791,7.59863 -2.11386,15.60931 0.73538,22.73569 3.34277,8.36084 11.34241,13.83688 16.51462,21.20749 8.80081,12.54153 8.15744,30.90353 -1.49963,42.79834 -4.18805,5.15848 -9.74042,9.04874 -14.13116,14.03583 -4.39074,4.98709 -7.64764,11.80563 -5.80865,18.19058 3.52286,12.23126 22.70462,15.16449 24.80847,27.7179 1.07565,6.41818 -3.35748,12.82758 -9.1658,15.76245 -5.80832,2.93487 -12.64572,3.02011 -19.10587,2.23492 -24.55347,-2.98438 -47.28705,-18.32629 -59.24158,-39.97961 -11.95456,-21.65335 -12.82504,-49.06561 -2.26843,-71.43384 8.67035,-18.37146 24.78519,-34.60559 24.60965,-54.91949 -0.0956,-11.0668 -5.17172,-21.4032 -10.13535,-31.29489 -10.15924,-20.24577 -20.31851,-40.49153 -30.47775,-60.7373 -5.44196,-10.84496 -11.75745,-22.53171 -22.96112,-27.19061 -8.65872,-3.60063 -18.48325,-2.20412 -27.74442,-0.73141 -9.26117,1.47271 -19.07155,2.90622 -27.75604,-0.63181 -8.68449,-3.53803 -15.24644,-14.04982 -11.1087,-22.4651"
     fill="#2f2e41"
     id="path30"
     style="display:inline" /><path
     d="m 240.47141,163.72575 c -16.68272,-5.49146 -35.39705,3.32417 -46.6913,16.77441 -11.29425,13.45026 -16.77287,30.70596 -21.992,47.47588 -2.98952,9.60582 -5.97903,19.21164 -8.96854,28.81747 -2.81226,9.03625 -5.6245,18.07248 -8.43675,27.10873 -3.30785,10.62869 -6.64275,21.9205 -3.92802,32.71591 1.96262,7.8046 7.01262,14.89124 7.12131,22.93808 0.11353,8.40567 -5.15047,15.7851 -9.7636,22.81268 -4.61311,7.02759 -8.94347,15.37701 -6.74557,23.49103 3.34306,12.34174 20.502,19.12564 19.56139,31.87747 -0.3139,4.25571 -2.7749,8.19205 -2.73022,12.45908 0.0568,5.42914 4.30745,10.1203 9.2874,12.28336 4.97997,2.16306 10.5818,2.28052 16.01041,2.18506 16.65134,-0.29279 33.27257,-2.27026 49.52779,-5.89246 6.25403,-1.39359 12.61382,-3.10281 17.81967,-6.83832 5.20585,-3.73551 9.0894,-9.92447 8.41191,-16.29596 -1.05576,-9.92862 -11.73091,-15.56143 -17.11801,-23.96805 -5.29137,-8.25723 -5.16869,-18.71957 -7.45038,-28.25763 C 231.25108,350.30403 223.50661,338.86 217.69288,326.7 195.83593,280.98394 203.48716,222.71282 236.40513,184.18891 c 2.91051,-3.40616 6.0903,-6.83273 7.30457,-11.14532 1.21426,-4.31261 -0.35107,-9.80727 -4.5697,-11.31593"
     fill="#2f2e41"
     id="path32"
     style="display:inline" /><path
     id="path34"
     d="M 266,0 C 194.95008,0 128.15016,27.670216 77.910156,77.910156 27.670216,128.1501 0,194.95002 0,266 c 0,64.84992 23.049115,126.16038 65.289062,174.57031 4.030026,4.63 8.241149,9.13953 12.621094,13.51953 1.030029,1.03003 2.069092,2.06055 3.119141,3.06055 2.799987,2.71002 5.650754,5.35969 8.550781,7.92969 1.760008,1.57001 3.539856,3.10919 5.339844,4.61914 1.410028,1.19 2.820011,2.36176 4.25,3.51172 0.03003,0.03 0.05011,0.0483 0.08008,0.0684 C 146.35994,511.32925 204.59008,532 266,532 c 66.60992,0 129.48052,-24.31981 178.48047,-68.75977 3.27002,-2.96001 6.46936,-6.01038 9.60937,-9.15039 0.98999,-0.98999 1.97925,-1.98999 2.94922,-3 2.70001,-2.77996 5.32087,-5.61048 7.88086,-8.48046 C 508.28988,393.88939 532,331.76989 532,266 532,194.95002 504.32978,128.1501 454.08984,77.910156 403.84984,27.670216 337.04992,0 266,0 Z m 0,2 c 145.56986,0 264,118.43014 264,264 0,66.6599 -24.83055,127.61919 -65.73047,174.11914 -2.5,2.83997 -5.0597,5.64105 -7.67969,8.37109 -4.08001,4.25 -8.29066,8.36988 -12.64062,12.33985 -1.65002,1.52002 -3.31977,3.00067 -5.00977,4.4707 -17.06999,14.84997 -36.06862,27.52889 -56.55859,37.62891 -7.18999,3.54998 -14.56159,6.77991 -22.10156,9.66992 C 330.98929,523.83959 299.19998,530 266,530 c -32.03995,0 -62.75949,-5.74024 -91.18945,-16.24023 -11.66997,-4.29999 -22.9513,-9.4098 -33.78125,-15.25977 -1.59003,-0.86005 -3.17023,-1.72912 -4.74024,-2.61914 -8.25994,-4.67999 -16.24995,-9.79053 -23.91992,-15.31055 -5.72997,-4.10998 -11.28822,-8.44 -16.658202,-13 -1.879999,-1.58997 -3.740295,-3.19958 -5.570313,-4.84961 -2.980037,-2.65001 -5.900023,-5.38165 -8.75,-8.18164 C 75.99061,449.24909 70.830376,443.7398 65.900391,438.00977 26.09043,391.76984 2,331.64989 2,266 2,120.43014 120.43014,2 266,2 Z"
     style="display:inline" /><g
     inkscape:groupmode="layer"
     id="layer1"
     inkscape:label="Layer Hand"
     style="display:inline"><path
       id="path757"
       style="fill:#1e97bc;fill-opacity:1;stroke-width:1.01123"
       d="m 47.097656,226.27539 -17.546875,52.64649 -4.048828,26.93554 -1.349609,40.40235 16.197265,56.32031 c 0,0 1.338168,3.00329 4.892579,8.58984 0.807452,0.99724 1.654218,1.96369 2.503906,2.92383 1.920463,2.10831 3.738778,4.30484 5.43164,6.59961 1.241606,1.8097 2.366375,3.68436 3.640625,5.47266 1.349809,1.78855 2.798132,3.48963 4.076172,5.33203 0.92697,1.2793 1.780842,2.60709 2.675781,3.9082 4.508281,5.28075 9.805594,11.14771 16.072266,17.62891 0.419861,0.25906 0.844455,0.51146 1.248047,0.78515 1.314571,1.04616 2.492411,2.255 3.601563,3.51367 0.94221,1.04993 1.840859,2.13161 2.685546,3.26172 0.0548,0.0736 0.116033,0.14204 0.171875,0.21485 1.934082,1.91199 3.875191,3.82996 5.962891,5.83007 4.615638,2.89248 9.17129,5.88442 13.57031,9.09766 1.74911,1.24772 3.4168,2.59952 5.07227,3.9668 0.79159,0.42438 1.58155,0.84542 2.44922,1.10547 1.29431,0.30165 2.6105,0.47922 3.91797,0.70898 1.58538,0.23426 3.14507,0.61709 4.62695,1.22656 0.57828,0.25611 1.14596,0.53422 1.7207,0.79688 l 8.80664,-22.19531 -8.09765,-12.24219 -9.44727,-17.14063 -14.84766,-11.01953 -21.593746,-83.25586 22.943356,-82.03125 h -6.748043 l -28.34375,-7.3457 z m 74.453124,260.39453 c 0.0762,0.20003 0.12854,0.39345 0.16016,0.58008 0.43756,0.14636 0.86988,0.30809 1.30859,0.45117 l 0.11719,-0.29687 c -0.53151,-0.23848 -1.0585,-0.48604 -1.58594,-0.73438 z m -1.04101,4.57227 c 0.28559,0.24426 0.53276,0.46965 0.82031,0.71484 l 0.15625,-0.39258 c -0.3257,-0.1066 -0.65157,-0.21374 -0.97656,-0.32226 z" /></g></svg>
